<svg version="1" xmlns="http://www.w3.org/2000/svg" width="2341.333" height="2341.333" viewBox="0 0 1756.000000 1756.000000"><path d="M1456.4 23.9c-23.3 5.7-45.5 20.9-67.4 46-6.3 7.4-16 20.1-16 21.2 0 .4-.6 1.4-1.3 2.1-4.5 4.5-20.5 34.5-28.4 53.3-7.8 18.5-9.1 22.3-20.8 59.5-3.3 10.4-11.5 45.8-14 60-.3 1.9-1.5 8-2.5 13.5-1.1 5.5-2.2 12.2-2.6 15-.3 2.7-.8 5.2-.9 5.5-.2.3-.7 3.3-1 6.5-.4 3.3-.9 6.2-1 6.5-.2.3-.6 3.4-1 7-.3 3.6-.8 7.2-1 8-.2.8-.7 4-1 7-.3 3-.8 6.6-1 8-.2 1.4-.6 5-1 8-1.1 9.8-1.5 12.9-2 16.7-1.1 8.6-1.6 13-2 15.8-.9 7.5-1.8 11.1-3.1 12.6-.8.9-1.2 2.3-.9 3.1.6 1.6-2.4 4.9-15.5 16.8-4.6 4.1-8.8 7.9-9.4 8.5-2.2 2-21.4 18.3-34.1 29-7.1 6.1-14.1 11.9-15.5 13.1-2.1 1.8-13.6 11.5-20.5 17.2-7.9 6.6-28.7 24.2-32.1 27.1-2.2 2-5.1 4.5-6.5 5.6-3.5 2.9-21.9 18.5-25.4 21.6-11.7 10.4-30.1 25.9-30.7 25.9-.3 0-1.3-.6-2-1.3-2.7-2.6-18.7-15.6-27.3-22.2-4.9-3.8-9.2-7.2-9.5-7.5-1.3-1.6-33-24-33.8-24-.6 0-1.2-.4-1.4-.9-.2-.7-22.8-15.7-34.4-22.8-35.2-21.8-73.6-42.1-107.4-56.8-4.7-2-9.8-4.3-11.5-5-19.8-9-75.5-28.4-97-33.8-1.1-.3-7.2-1.9-13.5-3.6-10.5-2.8-34.6-8.3-41.2-9.5-1.5-.2-6.3-1.1-10.5-2-8-1.6-9.7-1.8-21.8-3.6-3.8-.6-8.1-1.2-9.5-1.5-1.4-.2-4.9-.7-7.9-1-3-.4-6.2-.8-7.1-1-1-.2-5.4-.6-9.9-1-4.4-.3-8.9-.8-9.9-1-.9-.1-6.4-.6-12.2-1-35.5-2.4-82.2-1.9-107 1-1.9.2-6.2.7-9.5 1-12.9 1.3-43 6.1-56 8.9-1.1.3-5.4 1.2-9.5 2.1-12.1 2.6-32.3 8.2-49 13.7-61.9 20.3-118.7 52.2-166.5 93.7-19.7 17.1-41.3 39.5-56.9 59.1-3.8 4.7-12.6 14.6-19.6 22-12.6 13.3-23.6 25.8-29.5 33.4-1.6 2.2-3.9 4.9-5 6.2-1.1 1.2-2.8 3.3-3.7 4.6-.9 1.3-3.8 5.3-6.5 8.9-19.8 27-34.3 50.4-48.5 78.4-25.2 49.7-44.2 106.5-53.2 159-.9 5.3-3.5 21.9-4 25.5-.3 1.9-.7 5.1-1 7-.3 1.9-.8 6.4-1.1 10-.4 3.6-.8 7.5-1 8.8-2.7 17.3-2.7 89.9 0 117.7 1.4 14.3 1.7 16.8 2 18.5.2 1 .6 4.5 1 7.7.8 8 1.2 10.6 4.2 27.8 2.8 16.5 2.7 16.1 4.2 22.5 1 4.4 1.4 6.6 2.6 12.5 5.9 29.5 26.6 93.9 39.5 123 .9 2.2 4.1 9.4 7 16 5.7 12.7 22.6 47 27 54.5 1.5 2.5 5.1 8.8 8 14 7.4 13.1 21.2 35.4 22.2 35.8.4.2.8.8.8 1.3 0 .9 6.3 10.4 17.5 26.4 4.7 6.7 25.4 34.5 26.5 35.5.3.3 4.4 5.2 9 11 4.7 5.8 9.8 12 11.5 13.7 1.6 1.8 3.5 3.8 4 4.6 6.5 8.5 52.7 55.8 68 69.7 11.7 10.7 34.3 29.9 42.5 36.3.9.7 3.8 3 6.5 5.2 6.7 5.4 25.1 19.1 33 24.5 3.6 2.5 7.1 5 7.8 5.6 2.4 2.1 25.3 17.1 39.2 25.6 13.4 8.2 22.5 13.5 36.5 21.3 13.1 7.3 48 24.3 65 31.7 17.1 7.5 21.4 9.2 39 15.8 4.7 1.8 9.4 3.6 10.5 4 24.3 9.7 86.8 26.6 118 32 3.3.5 7.1 1.2 8.5 1.5 4.8 1 7.7 1.5 11.6 2 2.1.2 5 .7 6.4 1 1.4.2 4.5.7 7 .9 4.2.5 8.1 1 15.5 2.1 1.7.2 5.9.7 9.5 1 3.6.3 8.8.8 11.5 1 29.7 2.7 97.8 2.8 120 .1 1.7-.2 6.2-.7 10-1.1 3.9-.3 8.1-.8 9.5-1 1.4-.2 4.5-.6 7-.9 16.7-2.2 38.2-5.9 55-9.7 38.8-8.8 77.5-21.6 113-37.4 13.7-6.1 38-18.4 40.3-20.3.9-.8 1.7-1.2 1.7-.9 0 .3 3.6-1.6 8.1-4.3 4.4-2.8 8.2-5 8.4-5 1.9 0 48.7-32.1 55.2-37.8 1-.9 3.9-3.3 6.3-5.1 18.7-14.5 53.9-48.5 70.9-68.6 5.1-6.1 10.2-12.1 11.4-13.5 6.6-7.8 22-29 31.4-43.2 5.9-9 14.8-21.7 19.8-28.3 37.1-48.9 64.2-104.7 80.6-166.3 3.5-13.1 3-10.8 6.8-29.2 3.3-16.1 3.3-16.6 6.1-37 3.4-25.3 4.4-42.2 4.4-72.5 0-21.1-.9-47.4-1.8-53.5-.3-1.4-.7-5.7-1-9.5-.4-3.9-.8-8.1-1-9.5-.3-1.4-.7-5.2-1.1-8.5-.3-3.3-.8-6.7-1-7.5-.2-.8-.6-3.5-.9-6-.3-2.5-.8-5.6-1.1-7-.2-1.3-.7-4.2-1.1-6.4-.3-2.2-.7-4.3-.9-4.6-.1-.3-.6-2.6-.9-5.2-.4-2.6-1.8-9.8-3.2-16-1.4-6.2-2.8-12.4-3-13.8-.3-1.4-1.9-7.7-3.5-14-17.1-65.2-39.3-120.3-73.4-182.5-17.4-31.8-50.8-82-72.2-108.5-.6-.8-5.3-6.7-10.4-13-5.1-6.3-15-18.1-22.1-26.2-7-8-12.8-15-12.8-15.5 0-.4 1.7-2.6 3.8-4.8 2-2.2 7.1-7.8 11.2-12.5s9.3-10.5 11.6-13c3.5-3.9 22.4-25.2 43.8-49.4 3.3-3.9 6.8-7.7 7.6-8.6.8-.9 4.6-5.2 8.5-9.6 3.8-4.3 7.6-8.6 8.5-9.5.8-.9 4.2-4.7 7.5-8.4 3.3-3.8 10-11.4 14.9-17 4.9-5.5 11.5-12.9 14.6-16.5 3.2-3.6 12.4-14.2 20.6-23.5 8.2-9.4 15.6-17.9 16.6-19 .9-1.1 2.3-2.8 3.1-3.8 1.2-1.7 10.3-3.9 25.7-6.3 1.9-.3 4.2-.7 5-.9.8-.2 3.1-.7 5-1 18.4-3.1 77.3-15.6 108.5-23 29.2-6.9 60.5-16.9 113-36 49.3-17.9 80-35 101.5-56.5 6.5-6.4 18.7-21.1 26.6-32 21.8-29.8 23.9-54.7 6.1-73.1-17-17.7-70.1-42-102.4-46.9-4.3-.7-8.6-1.4-9.6-1.6-1-.1-4.7-.4-8.2-.5-3.6-.1-6.5-.5-6.5-.8 0-.3 2.1-2.9 4.6-5.6 15.2-16.7 20.4-22.4 23.5-26 1.9-2.2 4.2-4.6 5.1-5.3 1-.7 2.3-2.2 2.9-3.3 1.1-2.2 1.1-2.2-7.3-9.1-2.3-1.8-6-4.9-8.3-6.8l-4.1-3.6 4.4-7.4c2.4-4.1 5.5-9.4 6.8-11.7 1.3-2.3 8-13.9 14.9-25.8 6.9-11.8 12.5-22.4 12.5-23.5 0-2.9-2.6-7.6-4.5-8.4-7.9-3-19.2 4.7-52.4 35.9-5.5 5.2-30.6 29.3-34.5 33.2-.2.2-4.2-5-8.9-11.6C1561 74.3 1554 66 1543 54.9c-17-17.2-29.3-25.4-44.7-30.1-9.6-2.9-31.9-3.4-41.9-.9z"/></svg>